<svg xmlns="http://www.w3.org/2000/svg" viewBox="0 0 512 512">
  <defs>
    <linearGradient id="grad1" x1="0%" y1="0%" x2="100%" y2="100%">
      <stop offset="0%" style="stop-color:#00f2ff;stop-opacity:1" />
      <stop offset="100%" style="stop-color:#bd00ff;stop-opacity:1" />
    </linearGradient>
  </defs>
  
  <!-- Central Hexagon -->
  <path d="M256 186l60.6 35v70l-60.6 35-60.6-35v-70z" fill="none" stroke="url(#grad1)" stroke-width="16" stroke-linecap="round" stroke-linejoin="round"/>
  
  <!-- Innermost Wave -->
  <path d="M256 128c70.7 0 128 57.3 128 128s-57.3 128-128 128M256 128c-70.7 0-128 57.3-128 128s57.3 128 128 128" fill="none" stroke="url(#grad1)" stroke-width="16" stroke-linecap="round" stroke-opacity="0.8"/>
  
  <!-- Middle Wave -->
  <path d="M256 80c97.2 0 176 78.8 176 176s-78.8 176-176 176M256 80c-97.2 0-176 78.8-176 176s78.8 176 176 176" fill="none" stroke="url(#grad1)" stroke-width="16" stroke-linecap="round" stroke-opacity="0.6"/>
  
  <!-- Outer Wave -->
  <path d="M256 32c123.7 0 224 100.3 224 224s-100.3 224-224 224M256 32c-123.7 0-224 100.3-224 224s100.3 224 224 224" fill="none" stroke="url(#grad1)" stroke-width="16" stroke-linecap="round" stroke-opacity="0.4"/>
</svg>
